# xmcd
#
# Track frame offsets:
#	150
#	13930
#	29593
#	42538
#	60237
#	76035
#	89115
#	106315
#	121901
#	139359
#	157103
#	176569
#	192642
#	207319
#	226768
#
# Disc length: 3279 seconds
#
# Revision: 1
# Processed by: cddbd v1.5.2PL0 Copyright (c) Steve Scherf et al.
# Submitted via: audiograbber 1.83.01
#
DISCID=d20ccd0f
DTITLE=Various Artist - 200 Country Hits 1978-1985 Disc 13
DYEAR=1900
DGENRE=Karaoke
TTITLE0=Mel McDaniel - Baby's got her blue jeans on
TTITLE1=George Straight - Does Ft Worth ever cross your mind
TTITLE2=Reba McEntire - How blue
TTITLE3=Alabama - Fire in the night
TTITLE4=The Statler Brothers - My only love
TTITLE5=The Judds - Girls night out
TTITLE6=Kenny Rogers - Crazy
TTITLE7=Earl Thomas Conley - Honor bound
TTITLE8=Reba McEntire - Somebody should leave
TTITLE9=The Bellamy Brothers - I need more of you
TTITLE10=Alabama - There's no way
TTITLE11=Charly McClain - Radio heart
TTITLE12=Merle Haggard - Natural high
TTITLE13=Ricky Skaggs - Country boy
TTITLE14=Ronnie Milsap - She keeps the home fires burning
EXTD=
EXTT0=
EXTT1=
EXTT2=
EXTT3=
EXTT4=
EXTT5=
EXTT6=
EXTT7=
EXTT8=
EXTT9=
EXTT10=
EXTT11=
EXTT12=
EXTT13=
EXTT14=
PLAYORDER=
